<mxfile host="app.diagrams.net" modified="2022-08-03T08:55:22.752Z" agent="5.0 (Windows NT 10.0; Win64; x64) AppleWebKit/537.36 (KHTML, like Gecko) Chrome/103.0.0.0 Safari/537.36" etag="w171H8jB1gsj4cMp4nJn" version="20.2.2" type="github">
  <diagram id="BILMfl-_n3t0xHapWPdW" name="Page-1">
    <mxGraphModel dx="1422" dy="754" grid="1" gridSize="10" guides="1" tooltips="1" connect="1" arrows="1" fold="1" page="0" pageScale="1" pageWidth="827" pageHeight="1169" math="0" shadow="0">
      <root>
        <mxCell id="0" />
        <mxCell id="1" parent="0" />
        <mxCell id="IAl9m3HcrQruOkiR95BV-21" value="Organizational Governance Environment" style="rounded=0;whiteSpace=wrap;html=1;verticalAlign=top;align=left;" vertex="1" parent="1">
          <mxGeometry x="280" y="200" width="558" height="481" as="geometry" />
        </mxCell>
        <mxCell id="IAl9m3HcrQruOkiR95BV-20" value="&lt;br&gt;Organization Environment" style="rounded=0;whiteSpace=wrap;html=1;verticalAlign=top;align=left;" vertex="1" parent="1">
          <mxGeometry x="312" y="258" width="508" height="402" as="geometry" />
        </mxCell>
        <mxCell id="IAl9m3HcrQruOkiR95BV-5" value="&lt;br&gt;&lt;br&gt;Governance of PPP" style="rounded=0;whiteSpace=wrap;html=1;verticalAlign=top;align=left;fillColor=#f5f5f5;fontColor=#333333;strokeColor=#666666;" vertex="1" parent="1">
          <mxGeometry x="460" y="320" width="340" height="320" as="geometry" />
        </mxCell>
        <mxCell id="IAl9m3HcrQruOkiR95BV-4" value="Portfolios" style="rounded=0;whiteSpace=wrap;html=1;verticalAlign=top;align=center;" vertex="1" parent="1">
          <mxGeometry x="550" y="420" width="200" height="200" as="geometry" />
        </mxCell>
        <mxCell id="IAl9m3HcrQruOkiR95BV-3" value="Programmes" style="rounded=0;whiteSpace=wrap;html=1;verticalAlign=top;align=center;" vertex="1" parent="1">
          <mxGeometry x="530" y="470" width="200" height="130" as="geometry" />
        </mxCell>
        <mxCell id="IAl9m3HcrQruOkiR95BV-2" value="Projects" style="rounded=0;whiteSpace=wrap;html=1;verticalAlign=top;" vertex="1" parent="1">
          <mxGeometry x="650" y="500" width="120" height="80" as="geometry" />
        </mxCell>
        <mxCell id="IAl9m3HcrQruOkiR95BV-16" style="edgeStyle=orthogonalEdgeStyle;rounded=0;orthogonalLoop=1;jettySize=auto;html=1;exitX=0.5;exitY=1;exitDx=0;exitDy=0;entryX=0.75;entryY=0;entryDx=0;entryDy=0;startArrow=none;startFill=0;" edge="1" parent="1" source="IAl9m3HcrQruOkiR95BV-6" target="IAl9m3HcrQruOkiR95BV-4">
          <mxGeometry relative="1" as="geometry" />
        </mxCell>
        <mxCell id="IAl9m3HcrQruOkiR95BV-6" value="Requirements/ Business Cases" style="rounded=0;whiteSpace=wrap;html=1;verticalAlign=middle;" vertex="1" parent="1">
          <mxGeometry x="640" y="360" width="120" height="40" as="geometry" />
        </mxCell>
        <mxCell id="IAl9m3HcrQruOkiR95BV-15" style="edgeStyle=orthogonalEdgeStyle;rounded=0;orthogonalLoop=1;jettySize=auto;html=1;exitX=0.5;exitY=1;exitDx=0;exitDy=0;entryX=0.5;entryY=0;entryDx=0;entryDy=0;startArrow=none;startFill=0;" edge="1" parent="1" source="IAl9m3HcrQruOkiR95BV-7" target="IAl9m3HcrQruOkiR95BV-6">
          <mxGeometry relative="1" as="geometry" />
        </mxCell>
        <mxCell id="IAl9m3HcrQruOkiR95BV-7" value="Opportunities &amp;amp; Threats" style="rounded=0;whiteSpace=wrap;html=1;verticalAlign=middle;" vertex="1" parent="1">
          <mxGeometry x="640" y="300" width="120" height="40" as="geometry" />
        </mxCell>
        <mxCell id="IAl9m3HcrQruOkiR95BV-14" style="edgeStyle=orthogonalEdgeStyle;rounded=0;orthogonalLoop=1;jettySize=auto;html=1;exitX=1;exitY=0.25;exitDx=0;exitDy=0;entryX=0;entryY=0.25;entryDx=0;entryDy=0;startArrow=classic;startFill=1;" edge="1" parent="1" source="IAl9m3HcrQruOkiR95BV-8" target="IAl9m3HcrQruOkiR95BV-7">
          <mxGeometry relative="1" as="geometry" />
        </mxCell>
        <mxCell id="IAl9m3HcrQruOkiR95BV-8" value="Strategy" style="rounded=0;whiteSpace=wrap;html=1;verticalAlign=middle;" vertex="1" parent="1">
          <mxGeometry x="480" y="300" width="120" height="40" as="geometry" />
        </mxCell>
        <mxCell id="IAl9m3HcrQruOkiR95BV-12" style="edgeStyle=orthogonalEdgeStyle;rounded=0;orthogonalLoop=1;jettySize=auto;html=1;exitX=0.75;exitY=0;exitDx=0;exitDy=0;entryX=0.75;entryY=1;entryDx=0;entryDy=0;" edge="1" parent="1" source="IAl9m3HcrQruOkiR95BV-9" target="IAl9m3HcrQruOkiR95BV-10">
          <mxGeometry relative="1" as="geometry" />
        </mxCell>
        <mxCell id="IAl9m3HcrQruOkiR95BV-9" value="Operations" style="rounded=0;whiteSpace=wrap;html=1;verticalAlign=middle;" vertex="1" parent="1">
          <mxGeometry x="320" y="420" width="120" height="200" as="geometry" />
        </mxCell>
        <mxCell id="IAl9m3HcrQruOkiR95BV-13" style="edgeStyle=orthogonalEdgeStyle;rounded=0;orthogonalLoop=1;jettySize=auto;html=1;exitX=0.75;exitY=0;exitDx=0;exitDy=0;entryX=0;entryY=0.25;entryDx=0;entryDy=0;" edge="1" parent="1" source="IAl9m3HcrQruOkiR95BV-10" target="IAl9m3HcrQruOkiR95BV-8">
          <mxGeometry relative="1" as="geometry" />
        </mxCell>
        <mxCell id="IAl9m3HcrQruOkiR95BV-10" value="Results" style="rounded=0;whiteSpace=wrap;html=1;verticalAlign=middle;" vertex="1" parent="1">
          <mxGeometry x="290" y="360" width="160" height="40" as="geometry" />
        </mxCell>
        <mxCell id="IAl9m3HcrQruOkiR95BV-18" value="Governing Body" style="ellipse;whiteSpace=wrap;html=1;fillColor=#f5f5f5;fontColor=#333333;strokeColor=#666666;" vertex="1" parent="1">
          <mxGeometry x="720" y="230" width="80" height="40" as="geometry" />
        </mxCell>
        <mxCell id="IAl9m3HcrQruOkiR95BV-19" value="Stakeholders" style="ellipse;whiteSpace=wrap;html=1;fillColor=#f5f5f5;fontColor=#333333;strokeColor=#666666;" vertex="1" parent="1">
          <mxGeometry x="330" y="230" width="80" height="40" as="geometry" />
        </mxCell>
      </root>
    </mxGraphModel>
  </diagram>
</mxfile>
